<svg xmlns="http://www.w3.org/2000/svg" xmlns:xlink="http://www.w3.org/1999/xlink" width="44" height="198" viewBox="0 0 44 198"><defs><style>.a,.b,.c,.d,.g{fill:none;}.a{stroke:#fff;stroke-width:3px;stroke-dasharray:5 10;}.b,.c,.d{stroke:#ffd098;stroke-width:0.5px;}.b{opacity:0.9;}.c{opacity:0.75;}.d{opacity:0.5;}.e{fill:#feb865;}.f{stroke:none;}.h{filter:url(#c);}.i{filter:url(#a);}</style><filter id="a" x="6" y="9" width="32" height="32" filterUnits="userSpaceOnUse"><feOffset dy="3" input="SourceAlpha"/><feGaussianBlur stdDeviation="3" result="b"/><feFlood flood-opacity="0.161"/><feComposite operator="in" in2="b"/><feComposite in="SourceGraphic"/></filter><filter id="c" x="6" y="163" width="32" height="32" filterUnits="userSpaceOnUse"><feOffset dy="3" input="SourceAlpha"/><feGaussianBlur stdDeviation="3" result="d"/><feFlood flood-opacity="0.161"/><feComposite operator="in" in2="d"/><feComposite in="SourceGraphic"/></filter></defs><g transform="translate(-181.313 -1556.999)"><path class="a" d="M7047.5-8816v153.7" transform="translate(-6844.687 10395)"/><g transform="translate(-237.769 306.999)"><g class="b" transform="translate(429.082 1260)"><circle class="f" cx="12" cy="12" r="12"/><circle class="g" cx="12" cy="12" r="11.75"/></g><g class="c" transform="translate(424.082 1255)"><circle class="f" cx="17" cy="17" r="17"/><circle class="g" cx="17" cy="17" r="16.75"/></g><g class="d" transform="translate(419.082 1250)"><circle class="f" cx="22" cy="22" r="22"/><circle class="g" cx="22" cy="22" r="21.75"/></g><g class="i" transform="matrix(1, 0, 0, 1, 419.08, 1250)"><circle class="e" cx="7" cy="7" r="7" transform="translate(15 15)"/></g></g><g transform="translate(181.313 1710.999)"><g class="b" transform="translate(10 10)"><circle class="f" cx="12" cy="12" r="12"/><circle class="g" cx="12" cy="12" r="11.75"/></g><g class="c" transform="translate(5 5)"><circle class="f" cx="17" cy="17" r="17"/><circle class="g" cx="17" cy="17" r="16.75"/></g><g class="d" transform="translate(0)"><circle class="f" cx="22" cy="22" r="22"/><circle class="g" cx="22" cy="22" r="21.75"/></g><g class="h" transform="matrix(1, 0, 0, 1, 0, -154)"><circle class="e" cx="7" cy="7" r="7" transform="translate(15 169)"/></g></g></g></svg>