<svg width="60" height="60" viewBox="0 0 60 60" fill="none" xmlns="http://www.w3.org/2000/svg">
<rect width="60" height="60.0014" rx="30" fill="#020609"/>
<path fill-rule="evenodd" clip-rule="evenodd" d="M29.9666 15.8585C28.8916 15.8391 27.8234 16.0319 26.823 16.4258C25.8227 16.8196 24.9098 17.407 24.1367 18.154C23.3635 18.9011 22.7453 19.7934 22.3174 20.7797C21.8895 21.766 21.6603 22.827 21.6429 23.9019V35.1442C21.6429 35.8262 21.3719 36.4803 20.8897 36.9625C20.4075 37.4447 19.7534 37.7157 19.0714 37.7157H15.8571C14.8342 37.7157 13.8531 37.3093 13.1297 36.5859C12.4064 35.8626 12 34.8815 12 33.8585V28.7157C12 27.6927 12.4064 26.7116 13.1297 25.9882C13.8531 25.2649 14.8342 24.8585 15.8571 24.8585H17.7857V23.8557C17.8092 22.2752 18.1437 20.7149 18.7703 19.2638C19.3969 17.8127 20.3031 16.4993 21.4374 15.3984C22.5716 14.2976 23.9116 13.4311 25.3808 12.8482C26.85 12.2653 28.4196 11.9776 30 12.0014C31.5804 11.9776 33.15 12.2653 34.6192 12.8482C36.0884 13.4311 37.4284 14.2976 38.5626 15.3984C39.6969 16.4993 40.6031 17.8127 41.2297 19.2638C41.8563 20.7149 42.1908 22.2752 42.2143 23.8557V24.8585H44.1429C45.1658 24.8585 46.1469 25.2649 46.8703 25.9882C47.5936 26.7116 48 27.6927 48 28.7157V33.8585C48 34.8815 47.5936 35.8626 46.8703 36.5859C46.1469 37.3093 45.1658 37.7157 44.1429 37.7157H42.2143V39.0014C42.2146 40.739 41.5751 42.416 40.4179 43.7122C39.2606 45.0084 37.6666 45.8332 35.94 46.0291C35.6047 46.6277 35.1158 47.1261 34.5236 47.4728C33.9315 47.8195 33.2576 48.002 32.5714 48.0014H28.7143C27.6913 48.0014 26.7102 47.595 25.9869 46.8716C25.2635 46.1483 24.8571 45.1672 24.8571 44.1442C24.8571 43.1212 25.2635 42.1402 25.9869 41.4168C26.7102 40.6935 27.6913 40.2871 28.7143 40.2871H32.5714C33.9651 40.2871 35.1866 41.0251 35.8629 42.1334C36.5716 41.9705 37.2042 41.572 37.6572 41.0032C38.1103 40.4343 38.357 39.7286 38.3571 39.0014V23.8994C38.3395 22.8189 38.1079 21.7525 37.6756 20.7621C37.2434 19.7717 36.6191 18.8767 35.8389 18.129C35.0586 17.3813 34.1379 16.7957 33.13 16.4059C32.1221 16.0162 31.0469 15.8302 29.9666 15.8585Z" fill="white"/>
</svg>
