<svg width="23" height="24" viewBox="0 0 23 24" fill="none" xmlns="http://www.w3.org/2000/svg">
<path fill-rule="evenodd" clip-rule="evenodd" d="M1.62477 17.4419L0 23.3477L6.07074 21.7628C7.74345 22.6708 9.62659 23.1495 11.543 23.1503H11.548C17.8595 23.1503 22.9972 18.0369 23 11.7533C23.0011 8.70793 21.8113 5.84447 19.649 3.69021C17.4866 1.53596 14.6114 0.349206 11.5482 0.347656C5.23571 0.347656 0.098834 5.46004 0.0961881 11.7442C0.0937632 13.7442 0.621007 15.7095 1.62477 17.4419ZM8.04225 6.48747C8.24599 6.49568 8.47167 6.50528 8.68615 6.97958V6.97974C8.83222 7.30332 9.07779 7.90578 9.27395 8.38701C9.41932 8.74365 9.53756 9.03371 9.56803 9.09433C9.63963 9.23672 9.6871 9.40345 9.59184 9.59326C9.5772 9.62244 9.5637 9.64994 9.55081 9.67619C9.47982 9.82073 9.4274 9.92748 9.30608 10.0682C9.25761 10.1244 9.2075 10.185 9.15744 10.2456C9.05946 10.3642 8.96165 10.4826 8.87666 10.5671C8.73316 10.709 8.58374 10.8634 8.7509 11.1483C8.91806 11.4333 9.49223 12.3658 10.3428 13.1208C11.2583 13.9335 12.0534 14.2767 12.4558 14.4504C12.534 14.4841 12.5973 14.5114 12.6439 14.5346C12.9303 14.677 13.097 14.6531 13.264 14.463C13.431 14.2729 13.9787 13.6315 14.1696 13.3464C14.3606 13.0613 14.5513 13.1086 14.8135 13.2037C15.0758 13.2989 16.4824 13.9879 16.7688 14.1305C16.8251 14.1585 16.8777 14.1838 16.9265 14.2072C17.1256 14.3028 17.26 14.3673 17.3174 14.463C17.3888 14.5822 17.3887 15.1521 17.1504 15.8173C16.9121 16.4824 15.744 17.1241 15.2192 17.1715C15.1686 17.1761 15.1184 17.1819 15.0668 17.188C14.5818 17.2447 13.9698 17.3163 11.7855 16.4587C9.09505 15.4025 7.32182 12.784 6.95793 12.2466C6.92844 12.2031 6.9082 12.1732 6.89749 12.1589L6.8941 12.1544C6.73916 11.9481 5.72922 10.6038 5.72922 9.21286C5.72922 7.90167 6.37645 7.21406 6.6745 6.89742C6.69503 6.87561 6.7139 6.85556 6.73079 6.83718C6.9929 6.55208 7.30294 6.4808 7.49376 6.4808L8.04225 6.48747Z" fill="#65BD46"/>
</svg>
