<svg width="20" height="21" viewBox="0 0 20 21" fill="none" xmlns="http://www.w3.org/2000/svg">
<path fill-rule="evenodd" clip-rule="evenodd" d="M9.37085 0.23999L10.0009 2.68999L10.6309 0.23999H9.37085ZM11.9209 3.35999L13.4409 1.25999L12.2609 0.85999L11.9209 3.35999ZM6.59085 1.24999L8.11085 3.35999L7.77085 0.85999L6.59085 1.25999V1.24999ZM16.5209 18.33C15.8345 19.0721 14.9051 19.544 13.9009 19.66L14.3109 19.29C16.7009 16.89 17.1709 14.34 15.7109 11.66L14.8009 10.06L14.0009 8.38999C13.7509 7.82999 13.8109 7.40999 14.2109 7.09999C14.2885 7.04128 14.3775 6.9994 14.4722 6.97702C14.5669 6.95463 14.6652 6.95224 14.7609 6.96999C15.0409 7.01999 15.3009 7.19999 15.4809 7.46999L17.8509 11.63C18.8209 13.25 18.9909 15.86 16.5209 18.33ZM5.52085 17.89L1.37085 13.74C1.2357 13.5811 1.16531 13.3772 1.1737 13.1688C1.18208 12.9604 1.26864 12.7628 1.41613 12.6153C1.56362 12.4678 1.76123 12.3812 1.96964 12.3728C2.17806 12.3644 2.38199 12.4348 2.54085 12.57L4.70085 14.73C4.77258 14.7789 4.8592 14.801 4.94557 14.7924C5.03194 14.7839 5.11256 14.7452 5.17333 14.6833C5.2341 14.6213 5.27116 14.54 5.27802 14.4535C5.28488 14.3669 5.2611 14.2808 5.21085 14.21L3.06085 12.05L1.60085 10.61C1.4657 10.4511 1.39531 10.2472 1.4037 10.0388C1.41208 9.83037 1.49864 9.63275 1.64613 9.48526C1.79362 9.33777 1.99123 9.25122 2.19964 9.24283C2.40806 9.23444 2.61199 9.30483 2.77085 9.43999L6.20085 12.88C6.23446 12.9151 6.27482 12.943 6.3195 12.9621C6.36419 12.9812 6.41227 12.991 6.46085 12.991C6.50944 12.991 6.55752 12.9812 6.60221 12.9621C6.64689 12.943 6.68725 12.9151 6.72085 12.88C6.75594 12.8464 6.78387 12.806 6.80295 12.7613C6.82202 12.7167 6.83186 12.6686 6.83186 12.62C6.83186 12.5714 6.82202 12.5233 6.80295 12.4786C6.78387 12.434 6.75594 12.3936 6.72085 12.36L3.29085 8.91999L2.32085 7.94999C2.16938 7.79493 2.08457 7.58676 2.08457 7.36999C2.08457 7.15322 2.16938 6.94505 2.32085 6.78999C2.4776 6.63788 2.68743 6.5528 2.90585 6.5528C3.12428 6.5528 3.33411 6.63788 3.49085 6.78999L4.46085 7.75999L7.90085 11.19C7.9343 11.2236 7.97404 11.2502 8.0178 11.2684C8.06156 11.2865 8.10847 11.2959 8.15585 11.2959C8.20324 11.2959 8.25015 11.2865 8.29391 11.2684C8.33767 11.2502 8.37741 11.2236 8.41085 11.19C8.47925 11.1207 8.51761 11.0273 8.51761 10.93C8.51761 10.8327 8.47925 10.7392 8.41085 10.67L4.98085 7.23999C4.86452 7.12503 4.78522 6.97791 4.75314 6.81753C4.72107 6.65716 4.73768 6.49085 4.80085 6.33999C4.86249 6.18906 4.96771 6.05993 5.10308 5.96909C5.23845 5.87825 5.39783 5.82982 5.56085 5.82999C5.78085 5.82999 5.99085 5.91999 6.14085 6.06999L11.9409 11.86C12.0041 11.9121 12.0827 11.9417 12.1646 11.9443C12.2464 11.9468 12.3268 11.9222 12.3932 11.8741C12.4595 11.8261 12.508 11.7574 12.5311 11.6789C12.5542 11.6003 12.5506 11.5163 12.5209 11.44L11.4009 9.07999C11.1409 8.51999 11.2009 8.09999 11.6009 7.78999C11.6785 7.73128 11.7675 7.6894 11.8622 7.66702C11.9569 7.64463 12.0552 7.64224 12.1509 7.65999C12.4309 7.70999 12.7009 7.88999 12.8809 8.15999L15.0809 12.02C16.3809 14.4 15.9509 16.61 13.7909 18.77C13.2603 19.3272 12.5998 19.744 11.8685 19.9831C11.1373 20.2222 10.3581 20.2761 9.60085 20.14C8.04539 19.8255 6.6244 19.04 5.53085 17.89H5.52085ZM8.75085 5.38999L10.8709 7.49999C10.4609 7.99999 10.4009 8.66999 10.7409 9.39999L10.9609 9.85999L7.44085 6.32999C7.37992 6.21942 7.34568 6.09614 7.34085 5.96999C7.34085 5.73999 7.43085 5.53999 7.58085 5.37999C7.73878 5.23017 7.94817 5.14665 8.16585 5.14665C8.38354 5.14665 8.59293 5.23017 8.75085 5.37999V5.38999ZM16.1109 7.08999C15.9748 6.87278 15.7953 6.68605 15.5836 6.54149C15.3719 6.39694 15.1327 6.2977 14.8809 6.24999C14.6856 6.21548 14.4854 6.22164 14.2927 6.2681C14.1 6.31456 13.9189 6.40032 13.7609 6.51999C13.4609 6.75999 13.2609 7.06999 13.1809 7.40999C12.9309 7.15999 12.6109 7.00999 12.2709 6.93999C11.9909 6.89999 11.7109 6.93999 11.4509 7.03999L9.27085 4.85999C8.97855 4.56932 8.58308 4.40615 8.17085 4.40615C7.75863 4.40615 7.36316 4.56932 7.07085 4.85999C6.87085 5.05999 6.74085 5.29999 6.67085 5.55999C6.47429 5.36127 6.22794 5.21901 5.95757 5.14809C5.68721 5.07717 5.40275 5.08019 5.13395 5.15685C4.86515 5.2335 4.62188 5.38097 4.42959 5.58382C4.2373 5.78668 4.10304 6.03748 4.04085 6.30999C3.74746 6.0144 3.35038 5.84487 2.93397 5.8374C2.51757 5.82993 2.11466 5.98512 1.81085 6.26999C1.52018 6.56229 1.35702 6.95776 1.35702 7.36999C1.35702 7.78222 1.52018 8.17769 1.81085 8.46999C1.57085 8.56999 1.31085 8.70999 1.09085 8.91999C0.800181 9.21229 0.637019 9.60776 0.637019 10.02C0.637019 10.4322 0.800181 10.8277 1.09085 11.12L1.61085 11.64C1.34228 11.7043 1.09559 11.8387 0.895979 12.0296C0.696373 12.2204 0.551008 12.4609 0.474737 12.7263C0.398466 12.9917 0.394022 13.2726 0.46186 13.5403C0.529697 13.808 0.667384 14.0529 0.860854 14.25L5.00085 18.41C6.20621 19.6686 7.77083 20.5242 9.48085 20.86C10.6252 21.0757 11.8089 20.8996 12.8409 20.36C13.6105 20.4596 14.3929 20.3747 15.1232 20.1121C15.8535 19.8495 16.5108 19.4169 17.0409 18.85C19.7909 16.08 19.5809 13.11 18.4709 11.26L16.1009 7.08999H16.1109Z" fill="#757575"/>
</svg>
