<svg width="16" height="21" viewBox="0 0 16 21" fill="none" xmlns="http://www.w3.org/2000/svg">
<path fill-rule="evenodd" clip-rule="evenodd" d="M11.22 4.33991C11.1897 4.39127 11.1488 4.43559 11.1 4.46991H11.11C11.0254 4.52906 10.923 4.5573 10.82 4.54991C10.7086 4.53996 10.6034 4.49437 10.52 4.41991L8.5 2.40991V9.47991C8.5 9.61252 8.44732 9.7397 8.35355 9.83346C8.25979 9.92723 8.13261 9.97991 8 9.97991C7.86739 9.97991 7.74021 9.92723 7.64645 9.83346C7.55268 9.7397 7.5 9.61252 7.5 9.47991V2.42991L5.5 4.42991C5.42432 4.50155 5.32612 4.54469 5.22216 4.55199C5.11821 4.55928 5.01495 4.53027 4.93 4.46991H4.91C4.86293 4.43473 4.82419 4.38961 4.79654 4.33776C4.76888 4.28591 4.753 4.2286 4.75 4.16991C4.74252 4.11251 4.74759 4.05418 4.76486 3.99893C4.78212 3.94368 4.81117 3.89284 4.85 3.84991L7.65 1.04991C7.74346 0.958298 7.86912 0.906982 8 0.906982C8.13088 0.906982 8.25654 0.958298 8.35 1.04991L11.15 3.84991C11.2143 3.9144 11.2559 3.99804 11.2685 4.08822C11.2811 4.1784 11.2641 4.27025 11.22 4.34991V4.33991ZM12 6.47991H13.5C14.0304 6.47991 14.5391 6.69062 14.9142 7.0657C15.2893 7.44077 15.5 7.94948 15.5 8.47991V18.4799C15.5 19.0103 15.2893 19.5191 14.9142 19.8941C14.5391 20.2692 14.0304 20.4799 13.5 20.4799H2.5C1.96957 20.4799 1.46086 20.2692 1.08579 19.8941C0.710714 19.5191 0.5 19.0103 0.5 18.4799V8.47991C0.5 7.94948 0.710714 7.44077 1.08579 7.0657C1.46086 6.69062 1.96957 6.47991 2.5 6.47991H4C4.13046 6.47913 4.25607 6.52937 4.35 6.61991C4.45 6.71991 4.5 6.83991 4.5 6.96991C4.49812 7.1018 4.44421 7.2276 4.35 7.31991C4.25769 7.41412 4.13188 7.46803 4 7.46991H2.4C1.9 7.46991 1.5 7.86991 1.5 8.36991V18.5699C1.5 18.8086 1.59482 19.0375 1.7636 19.2063C1.93239 19.3751 2.16131 19.4699 2.4 19.4699H13.6C14.1 19.4699 14.5 19.0699 14.5 18.5699V8.36991C14.5 7.86991 14.1 7.46991 13.6 7.46991H12C11.8674 7.46991 11.7402 7.41723 11.6464 7.32346C11.5527 7.2297 11.5 7.10252 11.5 6.96991C11.5 6.8373 11.5527 6.71013 11.6464 6.61636C11.7402 6.52259 11.8674 6.46991 12 6.46991V6.47991Z" fill="#6B6B6B"/>
</svg>
