<svg xmlns="http://www.w3.org/2000/svg" width="62" height="62" viewBox="0 0 62 62"><defs><style>.a{fill:#263d85;}.b{fill:#fff;}</style></defs><g transform="translate(-79 -5349)"><path class="a" d="M3,0H51A11,11,0,0,1,62,11V59a3,3,0,0,1-3,3H11A11,11,0,0,1,0,51V3A3,3,0,0,1,3,0Z" transform="translate(79 5349)"/><g transform="translate(-24.131 5357.875)"><path class="b" d="M145.328,26.94a8.925,8.925,0,0,0-.778-1.888,6.389,6.389,0,0,0-1.309-1.568,15.627,15.627,0,0,0-1.531-1.234,14.926,14.926,0,0,0-1.864-1.05q-1.184-.581-1.876-.864t-2-.778q-1.16-.444-1.729-.679t-1.494-.667a8.707,8.707,0,0,1-1.383-.765,10.865,10.865,0,0,1-.975-.815,2.78,2.78,0,0,1-.729-1.025,3.32,3.32,0,0,1,1.272-3.926,6.42,6.42,0,0,1,3.828-1.062,8.229,8.229,0,0,1,2.111.284,11.042,11.042,0,0,1,1.839.642,12.776,12.776,0,0,1,1.445.79q.679.432.963.654c.189.148.309.247.358.3a.787.787,0,0,0,.667.173.674.674,0,0,0,.568-.4l2-3.605a.714.714,0,0,0-.123-.938c-.1-.1-.222-.214-.371-.346s-.469-.37-.963-.716a11.919,11.919,0,0,0-1.568-.926,15.858,15.858,0,0,0-2.149-.827,13.7,13.7,0,0,0-2.729-.568V.79a.76.76,0,0,0-.79-.79h-3.334a.759.759,0,0,0-.556.235.759.759,0,0,0-.235.556V5.235a11.3,11.3,0,0,0-6.3,3.309,8.444,8.444,0,0,0-2.42,5.976,8.575,8.575,0,0,0,.21,1.926,9.86,9.86,0,0,0,.519,1.642,6.043,6.043,0,0,0,.877,1.432,15.339,15.339,0,0,0,1.074,1.21,8.721,8.721,0,0,0,1.321,1.049q.815.544,1.4.877t1.543.765q.963.432,1.519.655t1.519.617q1.333.519,1.975.8t1.63.79a6.765,6.765,0,0,1,1.444.926,4.641,4.641,0,0,1,.827,1.037,2.5,2.5,0,0,1,.371,1.309,3.457,3.457,0,0,1-1.519,3.012,5.986,5.986,0,0,1-3.519,1.062,8.627,8.627,0,0,1-1.827-.2,12.9,12.9,0,0,1-6-3.087l-.049-.049a.612.612,0,0,0-.593-.222.767.767,0,0,0-.568.3l-2.544,3.333a.75.75,0,0,0,.049,1.012q.124.148.432.445a14.29,14.29,0,0,0,1.148.927,15.154,15.154,0,0,0,4.334,2.284,15.59,15.59,0,0,0,3.148.765V43.46a.8.8,0,0,0,.79.79h3.334a.759.759,0,0,0,.79-.79V39.138a10.6,10.6,0,0,0,6.384-3.371,9.4,9.4,0,0,0,2.457-6.507A8.118,8.118,0,0,0,145.328,26.94Z"/></g></g></svg>