<svg xmlns="http://www.w3.org/2000/svg" width="62" height="62" viewBox="0 0 62 62"><defs><style>.a{fill:#263d85;}.b{fill:#fff;}</style></defs><g transform="translate(-697 -5349)"><path class="a" d="M3,0H51A11,11,0,0,1,62,11V59a3,3,0,0,1-3,3H11A11,11,0,0,1,0,51V3A3,3,0,0,1,3,0Z" transform="translate(697 5349)"/><g transform="translate(707.186 5357.176)"><path class="b" d="M120.982,22.706a10.938,10.938,0,0,0,8.027-3.326,10.938,10.938,0,0,0,3.326-8.027,10.94,10.94,0,0,0-3.326-8.027,11.35,11.35,0,0,0-16.054,0,10.939,10.939,0,0,0-3.326,8.027,10.937,10.937,0,0,0,3.326,8.027A10.94,10.94,0,0,0,120.982,22.706Z" transform="translate(-100.168)"/><path class="b" d="M59.792,214.873a30.269,30.269,0,0,0-.414-3.223,25.067,25.067,0,0,0-.784-3.208,15.214,15.214,0,0,0-1.271-2.883,10.384,10.384,0,0,0-1.833-2.395,7.719,7.719,0,0,0-2.527-1.581,8.888,8.888,0,0,0-3.3-.591,3.614,3.614,0,0,0-1.242.636q-.975.636-2.2,1.42a13.985,13.985,0,0,1-3.193,1.418,12.568,12.568,0,0,1-7.894,0,13.982,13.982,0,0,1-3.193-1.418q-1.227-.784-2.2-1.42a3.613,3.613,0,0,0-1.242-.636,8.882,8.882,0,0,0-3.3.591,7.717,7.717,0,0,0-2.528,1.581,10.4,10.4,0,0,0-1.833,2.395,15.237,15.237,0,0,0-1.271,2.883,25.069,25.069,0,0,0-.783,3.208,30.089,30.089,0,0,0-.414,3.223q-.1,1.494-.1,3.06a7.369,7.369,0,0,0,2.158,5.6,7.976,7.976,0,0,0,5.736,2.054H52a7.976,7.976,0,0,0,5.736-2.054,7.366,7.366,0,0,0,2.159-5.6Q59.9,216.366,59.792,214.873Z" transform="translate(-18.268 -180.178)"/></g></g></svg>