<svg xmlns="http://www.w3.org/2000/svg" width="87" height="87" viewBox="0 0 87 87">
  <g id="Customized_is_available" data-name="Customized is available" transform="translate(0.162 0.081)">
    <path id="Rectangle_2827" data-name="Rectangle 2827" d="M3,0H76A11,11,0,0,1,87,11V84a3,3,0,0,1-3,3H11A11,11,0,0,1,0,76V3A3,3,0,0,1,3,0Z" transform="translate(-0.162 -0.081)" fill="#ea9313"/>
    <g id="customize" transform="translate(18.588 18.456)">
      <g id="Group_17398" data-name="Group 17398" transform="translate(0 38.434)">
        <g id="Group_17397" data-name="Group 17397">
          <path id="Path_19253" data-name="Path 19253" d="M3.171,394.593,0,406.029l11.436-3.171Z" transform="translate(0 -394.593)" fill="#fff"/>
        </g>
      </g>
      <g id="Group_17400" data-name="Group 17400" transform="translate(38.851 0)">
        <g id="Group_17399" data-name="Group 17399">
          <path id="Path_19254" data-name="Path 19254" d="M408.612,3.345l-2.066-2.066a4.4,4.4,0,0,0-6.2,0l-1.476,1.476,8.265,8.265,1.476-1.476A4.4,4.4,0,0,0,408.612,3.345Z" transform="translate(-398.871 0)" fill="#fff"/>
        </g>
      </g>
      <g id="Group_17402" data-name="Group 17402" transform="translate(34.718 4.82)">
        <g id="Group_17401" data-name="Group 17401" transform="translate(0 0)">
          <rect id="Rectangle_3455" data-name="Rectangle 3455" width="2.922" height="11.688" transform="translate(0 2.066) rotate(-45)" fill="#fff"/>
        </g>
      </g>
      <g id="Group_17404" data-name="Group 17404" transform="translate(10.402 14.119)">
        <g id="Group_17403" data-name="Group 17403" transform="translate(0 0)">
          <rect id="Rectangle_3456" data-name="Rectangle 3456" width="38.77" height="4.383" transform="translate(0 27.414) rotate(-45)" fill="#fff"/>
        </g>
      </g>
      <g id="Group_17406" data-name="Group 17406" transform="translate(5.237 8.953)">
        <g id="Group_17405" data-name="Group 17405" transform="translate(0 0)">
          <rect id="Rectangle_3457" data-name="Rectangle 3457" width="38.77" height="4.383" transform="translate(0 27.414) rotate(-45)" fill="#fff"/>
        </g>
      </g>
      <g id="Group_17408" data-name="Group 17408" transform="translate(27.001 27.001)">
        <g id="Group_17407" data-name="Group 17407">
          <path id="Path_19255" data-name="Path 19255" d="M297.3,283.873a9.48,9.48,0,0,0-7.876-2.711l-3.947-3.947-8.265,8.265,3.947,3.947a9.49,9.49,0,0,0,1.757,6.763l8.7-8.7,7.424,7.424A9.5,9.5,0,0,0,297.3,283.873Z" transform="translate(-277.211 -277.215)" fill="#fff"/>
        </g>
      </g>
      <g id="Group_17410" data-name="Group 17410" transform="translate(34.771 43.473)">
        <g id="Group_17409" data-name="Group 17409">
          <path id="Path_19256" data-name="Path 19256" d="M361.559,446.33,356.99,450.9a9.508,9.508,0,0,0,9.927.789Z" transform="translate(-356.99 -446.33)" fill="#fff"/>
        </g>
      </g>
      <g id="Group_17412" data-name="Group 17412" transform="translate(5.172 0)">
        <g id="Group_17411" data-name="Group 17411">
          <path id="Path_19257" data-name="Path 19257" d="M53.1,1.039,58.454,6.4l4.569-4.569A9.507,9.507,0,0,0,53.1,1.039Z" transform="translate(-53.096 0)" fill="#fff"/>
        </g>
      </g>
      <g id="Group_17414" data-name="Group 17414" transform="translate(0 3.893)">
        <g id="Group_17413" data-name="Group 17413">
          <path id="Path_19258" data-name="Path 19258" d="M18.922,46.733a9.49,9.49,0,0,0-1.757-6.763l-8.7,8.7L1.039,41.248A9.5,9.5,0,0,0,10.657,55L14.6,58.945l8.265-8.265Z" transform="translate(0 -39.97)" fill="#fff"/>
        </g>
      </g>
    </g>
  </g>
</svg>
