<svg xmlns="http://www.w3.org/2000/svg" xmlns:xlink="http://www.w3.org/1999/xlink" width="1110.702" height="247.938" viewBox="0 0 1110.702 247.938"><defs><style>.a{fill:#133a72;}.b{fill:#f9fafb;font-size:17px;font-family:OpenSans-Bold, Open Sans;font-weight:700;}.b,.d{letter-spacing:0.004em;}.c{fill:url(#c);}.d{fill:#f9f9f9;font-size:14px;font-family:OpenSans-Regular, Open Sans;}.e{filter:url(#a);}</style><filter id="a" x="0" y="0" width="1110.702" height="247.938" filterUnits="userSpaceOnUse"><feOffset dy="3" input="SourceAlpha"/><feGaussianBlur stdDeviation="12.5" result="b"/><feFlood flood-opacity="0.09"/><feComposite operator="in" in2="b"/><feComposite in="SourceGraphic"/></filter><linearGradient id="c" x1="0.5" x2="0.5" y2="1" gradientUnits="objectBoundingBox"><stop offset="0" stop-color="#4ab5c9"/><stop offset="1" stop-color="#3e8391"/></linearGradient></defs><g transform="translate(-129.5 -6553.563)"><g class="e" transform="matrix(1, 0, 0, 1, 129.5, 6553.56)"><path class="a" d="M-11859,10654.938a30,30,0,0,1-30-30v-136.945s263.413,54.1,510.611,13.672,525.091-5.979,525.091-5.979v129.253a30,30,0,0,1-30,30Z" transform="translate(11926.5 -10447.5)"/></g><text class="b" transform="translate(263.432 6680.249)"><tspan x="0" y="18">Palangkaraya</tspan></text><circle class="c" cx="6.553" cy="6.553" r="6.553" transform="translate(244.428 6685.794)"/><text class="d" transform="translate(263.453 6700.738)"><tspan x="0" y="15">2019 - present</tspan></text><g transform="translate(434.967 6680.249)"><text class="b" transform="translate(19.004)"><tspan x="0" y="18">Samarinda</tspan></text><circle class="c" cx="6.553" cy="6.553" r="6.553" transform="translate(0 5.545)"/></g><text class="d" transform="translate(454.453 6700.738)"><tspan x="0" y="15">2019 - present</tspan></text><g transform="translate(6.209 1872)"><g transform="translate(983.471 4808.249)"><text class="b" transform="translate(19.004)"><tspan x="0" y="18">Shanggata</tspan></text><circle class="c" cx="6.553" cy="6.553" r="6.553" transform="translate(0 5.545)"/></g><text class="d" transform="translate(1002.572 4828.738)"><tspan x="0" y="15">2021 - present</tspan></text></g><g transform="translate(2.026 1872)"><g transform="translate(814.297 4808.249)"><text class="b" transform="translate(19.004)"><tspan x="0" y="18">Kutai</tspan></text><circle class="c" cx="6.553" cy="6.553" r="6.553" transform="translate(0 5.545)"/></g><text class="d" transform="translate(833.957 4828.738)"><tspan x="0" y="15">2021 - present</tspan></text></g><g transform="translate(2 1872)"><g transform="translate(623.967 4808.249)"><g transform="translate(0)"><text class="b" transform="translate(19.004)"><tspan x="0" y="18">Banjarmasin</tspan></text><circle class="c" cx="6.553" cy="6.553" r="6.553" transform="translate(0 5.545)"/></g></g><text class="d" transform="translate(642.783 4828.738)"><tspan x="0" y="15">2020 - present</tspan></text></g></g></svg>