<svg xmlns="http://www.w3.org/2000/svg" width="87" height="87" viewBox="0 0 87 87">
  <g id="Historical_fatigue_report" data-name="Historical fatigue report" transform="translate(0.229 0.081)">
    <path id="Rectangle_2824" data-name="Rectangle 2824" d="M3,0H76A11,11,0,0,1,87,11V84a3,3,0,0,1-3,3H11A11,11,0,0,1,0,76V3A3,3,0,0,1,3,0Z" transform="translate(-0.229 -0.081)" fill="#263d85"/>
    <g id="folder" transform="translate(14.732 21.236)">
      <path id="Path_19247" data-name="Path 19247" d="M3.561,50.447H17.068a2.473,2.473,0,0,1,2.143,1.239l2.223,3.037a2.473,2.473,0,0,0,2.143,1.239h32.9V90.635a3.3,3.3,0,0,1-3.3,3.3H3.3a3.3,3.3,0,0,1-3.3-3.3V59.808A24.743,24.743,0,0,1,1.167,52.3h0A2.473,2.473,0,0,1,3.561,50.447Z" transform="translate(0 -50.447)" fill="#f6c358"/>
      <rect id="Rectangle_3454" data-name="Rectangle 3454" width="43.412" height="18.339" transform="translate(5.14 4.948)" fill="#ebf0f3"/>
      <path id="Path_19248" data-name="Path 19248" d="M54,64.117H40.393a2.473,2.473,0,0,0-2.249,1.445l-2.329,5.1A2.473,2.473,0,0,1,33.566,72.1H0V103.48a3.3,3.3,0,0,0,3.3,3.3H53.18a3.3,3.3,0,0,0,3.3-3.3V66.59A2.473,2.473,0,0,0,54,64.117Z" transform="translate(0 -62.468)" fill="#fcd462"/>
    </g>
  </g>
</svg>
