<svg xmlns="http://www.w3.org/2000/svg" width="87" height="87" viewBox="0 0 87 87">
  <g id="integrated_wearable" data-name="integrated wearable" transform="translate(0.428 0.081)">
    <path id="Rectangle_2826" data-name="Rectangle 2826" d="M3,0H76A11,11,0,0,1,87,11V84a3,3,0,0,1-3,3H11A11,11,0,0,1,0,76V3A3,3,0,0,1,3,0Z" transform="translate(-0.428 -0.081)" fill="#263d85"/>
    <g id="smartphone" transform="translate(23.515 11.138)">
      <path id="Path_19249" data-name="Path 19249" d="M40.881,44.9a2.694,2.694,0,0,0-3.416,1.664,2.829,2.829,0,0,1-2.809,1.817H10.063a2.69,2.69,0,0,1-2.688-2.688V18.814a2.761,2.761,0,0,1,2.957-2.688H34.925a2.623,2.623,0,0,1,2.287,1.333A2.688,2.688,0,0,0,41.94,14.9,7.859,7.859,0,0,0,36.5,10.982l-.677-6.746A4.683,4.683,0,0,0,31.149,0H13.168A4.687,4.687,0,0,0,8.488,4.236L7.8,11.117a8.043,8.043,0,0,0-5.8,7.7V45.692a8,8,0,0,0,5.795,7.652l.693,6.924a4.688,4.688,0,0,0,4.679,4.239H31.146a4.687,4.687,0,0,0,4.679-4.236l.669-6.69a8.066,8.066,0,0,0,6.047-5.265A2.682,2.682,0,0,0,40.881,44.9Z" transform="translate(-2 0)" fill="#fff"/>
      <path id="Path_19250" data-name="Path 19250" d="M21.074,7.816a2.7,2.7,0,0,0-3.223,2.016L13.819,27.3a2.688,2.688,0,1,0,5.238,1.209l4.032-17.47a2.693,2.693,0,0,0-2.016-3.225Z" transform="translate(17.832 13.081)" fill="#fff"/>
      <path id="Path_19251" data-name="Path 19251" d="M28.954,15.487,22.235,9.439a2.687,2.687,0,0,0-3.6,3.994l4.5,4.05-4.5,4.05a2.687,2.687,0,1,0,3.6,3.994l6.719-6.047a2.686,2.686,0,0,0,0-3.994Z" transform="translate(24.583 14.769)" fill="#fff"/>
      <path id="Path_19252" data-name="Path 19252" d="M20.154,9.639a2.687,2.687,0,0,0-3.8-.2L9.64,15.488a2.686,2.686,0,0,0,0,3.994l6.719,6.047a2.687,2.687,0,1,0,3.6-3.994l-4.5-4.05,4.5-4.05A2.689,2.689,0,0,0,20.154,9.639Z" transform="translate(9.392 14.768)" fill="#fff"/>
    </g>
  </g>
</svg>
