<svg width="16" height="19" viewBox="0 0 16 19" fill="none" xmlns="http://www.w3.org/2000/svg">
<path d="M1.23828 12.4641C1.63709 13.9526 2.51591 15.2678 3.73842 16.2059C4.96094 17.144 6.45883 17.6524 7.99978 17.6524C9.54073 17.6524 11.0386 17.144 12.2611 16.2059C13.4837 15.2678 14.3625 13.9526 14.7613 12.4641" stroke="#242424" stroke-width="2"/>
<path d="M8 10.6521L7.375 11.4321L8 11.9321L8.625 11.4321L8 10.6521ZM9 1.6521C9 1.38688 8.89464 1.13253 8.70711 0.944993C8.51957 0.757456 8.26522 0.6521 8 0.6521C7.73478 0.6521 7.48043 0.757456 7.29289 0.944993C7.10536 1.13253 7 1.38688 7 1.6521H9ZM2.375 7.4321L7.375 11.4321L8.625 9.8721L3.625 5.8721L2.375 7.4321ZM8.625 11.4321L13.625 7.4321L12.375 5.8721L7.375 9.8721L8.625 11.4321ZM9 10.6521V1.6521H7V10.6521H9Z" fill="#242424"/>
</svg>
